{"asset":{"version":"2.0","generator":"Codex STL-to-glTF"},"scene":0,"scenes":[{"nodes":[0]}],"nodes":[{"mesh":0,"name":"NOAA Geoid"}],"meshes":[{"name":"NOAA Geoid","primitives":[{"attributes":{"POSITION":0,"NORMAL":1,"COLOR_0":2},"material":0,"mode":4}]}],"materials":[{"name":"GeoidNeutral","pbrMetallicRoughness":{"baseColorFactor":[1,1,1,1],"metallicFactor":0.0,"roughnessFactor":0.88},"doubleSided":true}],"buffers":[{"byteLength":11518740,"uri":"geoid-noaa.bin"}],"bufferViews":[{"buffer":0,"byteOffset":0,"byteLength":3839580,"target":34962},{"buffer":0,"byteOffset":3839580,"byteLength":3839580,"target":34962},{"buffer":0,"byteOffset":7679160,"byteLength":3839580,"target":34962}],"accessors":[{"bufferView":0,"componentType":5126,"count":319965,"type":"VEC3","min":[-0.9590374231338501,-1.0,-0.9348369240760803],"max":[0.9590374231338501,1.0,0.9348369240760803]},{"bufferView":1,"componentType":5126,"count":319965,"type":"VEC3"},{"bufferView":2,"componentType":5126,"count":319965,"type":"VEC3"}]}