{
    "asset": {
        "version": "2.0",
        "generator": "Open Asset Import Library (assimp v5.2.cf7d3637)"
    },
    "extensionsUsed": [
        "KHR_materials_volume",
        "FB_ngon_encoding"
    ],
    "accessors": [
        {
            "bufferView": 0,
            "byteOffset": 0,
            "componentType": 5126,
            "count": 4704,
            "type": "VEC3",
            "max": [
                2.7118029594421388,
                -114.8740463256836,
                48.82570266723633
            ],
            "min": [
                -1.621000051498413,
                -115.92400360107422,
                44.49290084838867
            ]
        },
        {
            "bufferView": 1,
            "byteOffset": 0,
            "componentType": 5126,
            "count": 4704,
            "type": "VEC3",
            "max": [
                0.999997615814209,
                0.003783999942243099,
                1.0
            ],
            "min": [
                -0.999997615814209,
                -0.999997615814209,
                -1.0
            ]
        },
        {
            "bufferView": 2,
            "byteOffset": 0,
            "componentType": 5126,
            "count": 4704,
            "type": "VEC2",
            "max": [
                -1.7976931348623157e308,
                -1.7976931348623157e308
            ],
            "min": [
                1.7976931348623157e308,
                1.7976931348623157e308
            ]
        },
        {
            "bufferView": 3,
            "byteOffset": 0,
            "componentType": 5125,
            "count": 4704,
            "type": "SCALAR",
            "max": [
                4703
            ],
            "min": [
                0
            ]
        },
        {
            "bufferView": 4,
            "byteOffset": 0,
            "componentType": 5126,
            "count": 73920,
            "type": "VEC3",
            "max": [
                32.539554595947269,
                75.79055786132813,
                86.41287231445313
            ],
            "min": [
                -31.597000122070314,
                -122.41300201416016,
                30.80069923400879
            ]
        },
        {
            "bufferView": 5,
            "byteOffset": 0,
            "componentType": 5126,
            "count": 73920,
            "type": "VEC3",
            "max": [
                0.999997615814209,
                0.999997615814209,
                1.0
            ],
            "min": [
                -0.999997615814209,
                -0.999997615814209,
                -1.0
            ]
        },
        {
            "bufferView": 6,
            "byteOffset": 0,
            "componentType": 5126,
            "count": 73920,
            "type": "VEC2",
            "max": [
                -1.7976931348623157e308,
                -1.7976931348623157e308
            ],
            "min": [
                1.7976931348623157e308,
                1.7976931348623157e308
            ]
        },
        {
            "bufferView": 7,
            "byteOffset": 0,
            "componentType": 5125,
            "count": 73920,
            "type": "SCALAR",
            "max": [
                73919
            ],
            "min": [
                0
            ]
        },
        {
            "bufferView": 8,
            "byteOffset": 0,
            "componentType": 5126,
            "count": 93396,
            "type": "VEC3",
            "max": [
                -81.9500961303711,
                -11.234271049499512,
                102.16617584228516
            ],
            "min": [
                -203.99099731445313,
                -201.2310028076172,
                91.04609680175781
            ]
        },
        {
            "bufferView": 9,
            "byteOffset": 0,
            "componentType": 5126,
            "count": 93396,
            "type": "VEC3",
            "max": [
                0.9999691247940064,
                0.9999499917030335,
                1.0
            ],
            "min": [
                -0.999997615814209,
                -0.9999499917030335,
                -1.0
            ]
        },
        {
            "bufferView": 10,
            "byteOffset": 0,
            "componentType": 5126,
            "count": 93396,
            "type": "VEC2",
            "max": [
                -1.7976931348623157e308,
                -1.7976931348623157e308
            ],
            "min": [
                1.7976931348623157e308,
                1.7976931348623157e308
            ]
        },
        {
            "bufferView": 11,
            "byteOffset": 0,
            "componentType": 5125,
            "count": 93396,
            "type": "SCALAR",
            "max": [
                93395
            ],
            "min": [
                0
            ]
        },
        {
            "bufferView": 12,
            "byteOffset": 0,
            "componentType": 5126,
            "count": 21504,
            "type": "VEC3",
            "max": [
                206.38880920410157,
                207.2877960205078,
                99.13153839111328
            ],
            "min": [
                -206.38900756835938,
                -207.2779998779297,
                65.84369659423828
            ]
        },
        {
            "bufferView": 13,
            "byteOffset": 0,
            "componentType": 5126,
            "count": 21504,
            "type": "VEC3",
            "max": [
                0.9999691247940064,
                0.9989712238311768,
                0.9988452196121216
            ],
            "min": [
                -0.9999691247940064,
                -0.9989522099494934,
                -0.9999141097068787
            ]
        },
        {
            "bufferView": 14,
            "byteOffset": 0,
            "componentType": 5126,
            "count": 21504,
            "type": "VEC2",
            "max": [
                -1.7976931348623157e308,
                -1.7976931348623157e308
            ],
            "min": [
                1.7976931348623157e308,
                1.7976931348623157e308
            ]
        },
        {
            "bufferView": 15,
            "byteOffset": 0,
            "componentType": 5125,
            "count": 21504,
            "type": "SCALAR",
            "max": [
                21503
            ],
            "min": [
                0
            ]
        },
        {
            "bufferView": 16,
            "byteOffset": 0,
            "componentType": 5126,
            "count": 24192,
            "type": "VEC3",
            "max": [
                154.0214080810547,
                120.6108627319336,
                69.73844909667969
            ],
            "min": [
                -154.0030059814453,
                -111.76599884033203,
                36.193721771240237
            ]
        },
        {
            "bufferView": 17,
            "byteOffset": 0,
            "componentType": 5126,
            "count": 24192,
            "type": "VEC3",
            "max": [
                0.9978043437004089,
                0.9992276430130005,
                0.9733055233955383
            ],
            "min": [
                -0.9976829886436462,
                -0.9999691247940064,
                -0.9876542091369629
            ]
        },
        {
            "bufferView": 18,
            "byteOffset": 0,
            "componentType": 5126,
            "count": 24192,
            "type": "VEC2",
            "max": [
                -1.7976931348623157e308,
                -1.7976931348623157e308
            ],
            "min": [
                1.7976931348623157e308,
                1.7976931348623157e308
            ]
        },
        {
            "bufferView": 19,
            "byteOffset": 0,
            "componentType": 5125,
            "count": 24192,
            "type": "SCALAR",
            "max": [
                24191
            ],
            "min": [
                0
            ]
        },
        {
            "bufferView": 20,
            "byteOffset": 0,
            "componentType": 5126,
            "count": 190608,
            "type": "VEC3",
            "max": [
                149.6136016845703,
                77.13878631591797,
                88.57029724121094
            ],
            "min": [
                -149.61300659179688,
                -123.76200103759766,
                24.87420082092285
            ]
        },
        {
            "bufferView": 21,
            "byteOffset": 0,
            "componentType": 5126,
            "count": 190608,
            "type": "VEC3",
            "max": [
                0.999997615814209,
                0.999997615814209,
                1.0
            ],
            "min": [
                -0.999997615814209,
                -0.999997615814209,
                -1.0
            ]
        },
        {
            "bufferView": 22,
            "byteOffset": 0,
            "componentType": 5126,
            "count": 190608,
            "type": "VEC2",
            "max": [
                -1.7976931348623157e308,
                -1.7976931348623157e308
            ],
            "min": [
                1.7976931348623157e308,
                1.7976931348623157e308
            ]
        },
        {
            "bufferView": 23,
            "byteOffset": 0,
            "componentType": 5125,
            "count": 190608,
            "type": "SCALAR",
            "max": [
                190607
            ],
            "min": [
                0
            ]
        },
        {
            "bufferView": 24,
            "byteOffset": 0,
            "componentType": 5126,
            "count": 32472,
            "type": "VEC3",
            "max": [
                96.4821548461914,
                -74.65702056884766,
                87.24169921875
            ],
            "min": [
                -84.00260162353516,
                -93.78820037841797,
                69.10749816894531
            ]
        },
        {
            "bufferView": 25,
            "byteOffset": 0,
            "componentType": 5126,
            "count": 32472,
            "type": "VEC3",
            "max": [
                0.999997615814209,
                0.9989712238311768,
                0.9993892312049866
            ],
            "min": [
                -0.999997615814209,
                -0.9969571232795715,
                -0.9995323419570923
            ]
        },
        {
            "bufferView": 26,
            "byteOffset": 0,
            "componentType": 5126,
            "count": 32472,
            "type": "VEC2",
            "max": [
                -1.7976931348623157e308,
                -1.7976931348623157e308
            ],
            "min": [
                1.7976931348623157e308,
                1.7976931348623157e308
            ]
        },
        {
            "bufferView": 27,
            "byteOffset": 0,
            "componentType": 5125,
            "count": 32472,
            "type": "SCALAR",
            "max": [
                32471
            ],
            "min": [
                0
            ]
        },
        {
            "bufferView": 28,
            "byteOffset": 0,
            "componentType": 5126,
            "count": 139788,
            "type": "VEC3",
            "max": [
                144.96994018554688,
                126.49613952636719,
                89.24718475341797
            ],
            "min": [
                -156.322998046875,
                -118.55799865722656,
                26.148099899291993
            ]
        },
        {
            "bufferView": 29,
            "byteOffset": 0,
            "componentType": 5126,
            "count": 139788,
            "type": "VEC3",
            "max": [
                0.999997615814209,
                0.999997615814209,
                1.0
            ],
            "min": [
                -0.999997615814209,
                -0.999997615814209,
                -1.0
            ]
        },
        {
            "bufferView": 30,
            "byteOffset": 0,
            "componentType": 5126,
            "count": 139788,
            "type": "VEC2",
            "max": [
                -1.7976931348623157e308,
                -1.7976931348623157e308
            ],
            "min": [
                1.7976931348623157e308,
                1.7976931348623157e308
            ]
        },
        {
            "bufferView": 31,
            "byteOffset": 0,
            "componentType": 5125,
            "count": 139788,
            "type": "SCALAR",
            "max": [
                139787
            ],
            "min": [
                0
            ]
        },
        {
            "bufferView": 32,
            "byteOffset": 0,
            "componentType": 5126,
            "count": 139788,
            "type": "VEC3",
            "max": [
                144.96994018554688,
                126.49613952636719,
                89.24718475341797
            ],
            "min": [
                -156.322998046875,
                -118.55799865722656,
                26.148099899291993
            ]
        },
        {
            "bufferView": 33,
            "byteOffset": 0,
            "componentType": 5126,
            "count": 139788,
            "type": "VEC3",
            "max": [
                0.999997615814209,
                0.999997615814209,
                1.0
            ],
            "min": [
                -0.999997615814209,
                -0.999997615814209,
                -1.0
            ]
        },
        {
            "bufferView": 34,
            "byteOffset": 0,
            "componentType": 5126,
            "count": 139788,
            "type": "VEC2",
            "max": [
                -1.7976931348623157e308,
                -1.7976931348623157e308
            ],
            "min": [
                1.7976931348623157e308,
                1.7976931348623157e308
            ]
        },
        {
            "bufferView": 35,
            "byteOffset": 0,
            "componentType": 5125,
            "count": 139788,
            "type": "SCALAR",
            "max": [
                139787
            ],
            "min": [
                0
            ]
        },
        {
            "bufferView": 36,
            "byteOffset": 0,
            "componentType": 5126,
            "count": 1200,
            "type": "VEC3",
            "max": [
                26.218017578125,
                71.33491516113281,
                58.49649429321289
            ],
            "min": [
                -25.275699615478517,
                -48.78099822998047,
                38.10860061645508
            ]
        },
        {
            "bufferView": 37,
            "byteOffset": 0,
            "componentType": 5126,
            "count": 1200,
            "type": "VEC3",
            "max": [
                0.74347984790802,
                0.999997615814209,
                0.002184999641031027
            ],
            "min": [
                -0.74347984790802,
                -0.6687548160552979,
                0.002184999408200383
            ]
        },
        {
            "bufferView": 38,
            "byteOffset": 0,
            "componentType": 5126,
            "count": 1200,
            "type": "VEC2",
            "max": [
                -1.7976931348623157e308,
                -1.7976931348623157e308
            ],
            "min": [
                1.7976931348623157e308,
                1.7976931348623157e308
            ]
        },
        {
            "bufferView": 39,
            "byteOffset": 0,
            "componentType": 5125,
            "count": 1200,
            "type": "SCALAR",
            "max": [
                1199
            ],
            "min": [
                0
            ]
        },
        {
            "bufferView": 40,
            "byteOffset": 0,
            "componentType": 5126,
            "count": 139788,
            "type": "VEC3",
            "max": [
                144.96994018554688,
                126.49613952636719,
                89.24718475341797
            ],
            "min": [
                -156.322998046875,
                -118.55799865722656,
                26.148099899291993
            ]
        },
        {
            "bufferView": 41,
            "byteOffset": 0,
            "componentType": 5126,
            "count": 139788,
            "type": "VEC3",
            "max": [
                0.999997615814209,
                0.999997615814209,
                1.0
            ],
            "min": [
                -0.999997615814209,
                -0.999997615814209,
                -1.0
            ]
        },
        {
            "bufferView": 42,
            "byteOffset": 0,
            "componentType": 5126,
            "count": 139788,
            "type": "VEC2",
            "max": [
                -1.7976931348623157e308,
                -1.7976931348623157e308
            ],
            "min": [
                1.7976931348623157e308,
                1.7976931348623157e308
            ]
        },
        {
            "bufferView": 43,
            "byteOffset": 0,
            "componentType": 5125,
            "count": 139788,
            "type": "SCALAR",
            "max": [
                139787
            ],
            "min": [
                0
            ]
        },
        {
            "bufferView": 44,
            "byteOffset": 0,
            "componentType": 5126,
            "count": 311334,
            "type": "VEC3",
            "max": [
                156.3233642578125,
                82.02784729003906,
                97.25540161132813
            ],
            "min": [
                -42.31039810180664,
                -132.86599731445313,
                23.403499603271486
            ]
        },
        {
            "bufferView": 45,
            "byteOffset": 0,
            "componentType": 5126,
            "count": 311334,
            "type": "VEC3",
            "max": [
                0.999997615814209,
                0.999997615814209,
                1.0
            ],
            "min": [
                -0.999997615814209,
                -0.999997615814209,
                -1.0
            ]
        },
        {
            "bufferView": 46,
            "byteOffset": 0,
            "componentType": 5126,
            "count": 311334,
            "type": "VEC2",
            "max": [
                -1.7976931348623157e308,
                -1.7976931348623157e308
            ],
            "min": [
                1.7976931348623157e308,
                1.7976931348623157e308
            ]
        },
        {
            "bufferView": 47,
            "byteOffset": 0,
            "componentType": 5125,
            "count": 311334,
            "type": "SCALAR",
            "max": [
                311333
            ],
            "min": [
                0
            ]
        },
        {
            "bufferView": 48,
            "byteOffset": 0,
            "componentType": 5126,
            "count": 1152,
            "type": "VEC3",
            "max": [
                8.982555389404297,
                19.10001564025879,
                31.3597354888916
            ],
            "min": [
                -8.976530075073243,
                16.2003173828125,
                31.22610092163086
            ]
        },
        {
            "bufferView": 49,
            "byteOffset": 0,
            "componentType": 5126,
            "count": 1152,
            "type": "VEC3",
            "max": [
                0.0,
                0.04804500937461853,
                -0.9988452196121216
            ],
            "min": [
                0.0,
                0.04367998614907265,
                -0.9990456700325012
            ]
        },
        {
            "bufferView": 50,
            "byteOffset": 0,
            "componentType": 5126,
            "count": 1152,
            "type": "VEC2",
            "max": [
                -1.7976931348623157e308,
                -1.7976931348623157e308
            ],
            "min": [
                1.7976931348623157e308,
                1.7976931348623157e308
            ]
        },
        {
            "bufferView": 51,
            "byteOffset": 0,
            "componentType": 5125,
            "count": 1152,
            "type": "SCALAR",
            "max": [
                1151
            ],
            "min": [
                0
            ]
        },
        {
            "bufferView": 52,
            "byteOffset": 0,
            "componentType": 5126,
            "count": 311334,
            "type": "VEC3",
            "max": [
                156.3233642578125,
                82.02784729003906,
                97.25540161132813
            ],
            "min": [
                -42.31039810180664,
                -132.86599731445313,
                23.403499603271486
            ]
        },
        {
            "bufferView": 53,
            "byteOffset": 0,
            "componentType": 5126,
            "count": 311334,
            "type": "VEC3",
            "max": [
                0.999997615814209,
                0.999997615814209,
                1.0
            ],
            "min": [
                -0.999997615814209,
                -0.999997615814209,
                -1.0
            ]
        },
        {
            "bufferView": 54,
            "byteOffset": 0,
            "componentType": 5126,
            "count": 311334,
            "type": "VEC2",
            "max": [
                -1.7976931348623157e308,
                -1.7976931348623157e308
            ],
            "min": [
                1.7976931348623157e308,
                1.7976931348623157e308
            ]
        },
        {
            "bufferView": 55,
            "byteOffset": 0,
            "componentType": 5125,
            "count": 311334,
            "type": "SCALAR",
            "max": [
                311333
            ],
            "min": [
                0
            ]
        },
        {
            "bufferView": 56,
            "byteOffset": 0,
            "componentType": 5126,
            "count": 33792,
            "type": "VEC3",
            "max": [
                156.66458129882813,
                123.68012237548828,
                92.77947235107422
            ],
            "min": [
                -156.6999969482422,
                -114.37999725341797,
                28.202600479125978
            ]
        },
        {
            "bufferView": 57,
            "byteOffset": 0,
            "componentType": 5126,
            "count": 33792,
            "type": "VEC3",
            "max": [
                0.9999691247940064,
                0.9999691247940064,
                0.9999905228614807
            ],
            "min": [
                -0.9999691247940064,
                -0.9999785423278809,
                -0.9998473525047302
            ]
        },
        {
            "bufferView": 58,
            "byteOffset": 0,
            "componentType": 5126,
            "count": 33792,
            "type": "VEC2",
            "max": [
                -1.7976931348623157e308,
                -1.7976931348623157e308
            ],
            "min": [
                1.7976931348623157e308,
                1.7976931348623157e308
            ]
        },
        {
            "bufferView": 59,
            "byteOffset": 0,
            "componentType": 5125,
            "count": 33792,
            "type": "SCALAR",
            "max": [
                33791
            ],
            "min": [
                0
            ]
        },
        {
            "bufferView": 60,
            "byteOffset": 0,
            "componentType": 5126,
            "count": 94086,
            "type": "VEC3",
            "max": [
                34.96565246582031,
                77.61577606201172,
                88.60010528564453
            ],
            "min": [
                -34.02330017089844,
                -129.34300231933595,
                18.975000381469728
            ]
        },
        {
            "bufferView": 61,
            "byteOffset": 0,
            "componentType": 5126,
            "count": 94086,
            "type": "VEC3",
            "max": [
                0.999997615814209,
                0.999997615814209,
                1.0
            ],
            "min": [
                -0.999997615814209,
                -0.999997615814209,
                -1.0
            ]
        },
        {
            "bufferView": 62,
            "byteOffset": 0,
            "componentType": 5126,
            "count": 94086,
            "type": "VEC2",
            "max": [
                -1.7976931348623157e308,
                -1.7976931348623157e308
            ],
            "min": [
                1.7976931348623157e308,
                1.7976931348623157e308
            ]
        },
        {
            "bufferView": 63,
            "byteOffset": 0,
            "componentType": 5125,
            "count": 94086,
            "type": "SCALAR",
            "max": [
                94085
            ],
            "min": [
                0
            ]
        },
        {
            "bufferView": 64,
            "byteOffset": 0,
            "componentType": 5126,
            "count": 94086,
            "type": "VEC3",
            "max": [
                34.96565246582031,
                77.61577606201172,
                88.60010528564453
            ],
            "min": [
                -34.02330017089844,
                -129.34300231933595,
                18.975000381469728
            ]
        },
        {
            "bufferView": 65,
            "byteOffset": 0,
            "componentType": 5126,
            "count": 94086,
            "type": "VEC3",
            "max": [
                0.999997615814209,
                0.999997615814209,
                1.0
            ],
            "min": [
                -0.999997615814209,
                -0.999997615814209,
                -1.0
            ]
        },
        {
            "bufferView": 66,
            "byteOffset": 0,
            "componentType": 5126,
            "count": 94086,
            "type": "VEC2",
            "max": [
                -1.7976931348623157e308,
                -1.7976931348623157e308
            ],
            "min": [
                1.7976931348623157e308,
                1.7976931348623157e308
            ]
        },
        {
            "bufferView": 67,
            "byteOffset": 0,
            "componentType": 5125,
            "count": 94086,
            "type": "SCALAR",
            "max": [
                94085
            ],
            "min": [
                0
            ]
        },
        {
            "bufferView": 68,
            "byteOffset": 0,
            "componentType": 5126,
            "count": 15552,
            "type": "VEC3",
            "max": [
                13.122092247009278,
                -119.26860809326172,
                56.132503509521487
            ],
            "min": [
                -12.031200408935547,
                -119.51200103759766,
                37.186100006103519
            ]
        },
        {
            "bufferView": 69,
            "byteOffset": 0,
            "componentType": 5126,
            "count": 15552,
            "type": "VEC3",
            "max": [
                0.999997615814209,
                0.999997615814209,
                1.0
            ],
            "min": [
                -0.999997615814209,
                -0.999997615814209,
                -1.0
            ]
        },
        {
            "bufferView": 70,
            "byteOffset": 0,
            "componentType": 5126,
            "count": 15552,
            "type": "VEC2",
            "max": [
                -1.7976931348623157e308,
                -1.7976931348623157e308
            ],
            "min": [
                1.7976931348623157e308,
                1.7976931348623157e308
            ]
        },
        {
            "bufferView": 71,
            "byteOffset": 0,
            "componentType": 5125,
            "count": 15552,
            "type": "SCALAR",
            "max": [
                15551
            ],
            "min": [
                0
            ]
        },
        {
            "bufferView": 72,
            "byteOffset": 0,
            "componentType": 5126,
            "count": 2688,
            "type": "VEC3",
            "max": [
                6.974507808685303,
                -115.82034301757813,
                53.08830642700195
            ],
            "min": [
                -5.883600234985352,
                -116.04199981689453,
                40.23030090332031
            ]
        },
        {
            "bufferView": 73,
            "byteOffset": 0,
            "componentType": 5126,
            "count": 2688,
            "type": "VEC3",
            "max": [
                0.999997615814209,
                0.003783999942243099,
                1.0
            ],
            "min": [
                -0.999997615814209,
                -0.999997615814209,
                -1.0
            ]
        },
        {
            "bufferView": 74,
            "byteOffset": 0,
            "componentType": 5126,
            "count": 2688,
            "type": "VEC2",
            "max": [
                -1.7976931348623157e308,
                -1.7976931348623157e308
            ],
            "min": [
                1.7976931348623157e308,
                1.7976931348623157e308
            ]
        },
        {
            "bufferView": 75,
            "byteOffset": 0,
            "componentType": 5125,
            "count": 2688,
            "type": "SCALAR",
            "max": [
                2687
            ],
            "min": [
                0
            ]
        },
        {
            "bufferView": 76,
            "byteOffset": 0,
            "componentType": 5126,
            "count": 199512,
            "type": "VEC3",
            "max": [
                35.673038482666019,
                75.94662475585938,
                97.26020812988281
            ],
            "min": [
                -34.68880081176758,
                -112.75900268554688,
                28.19610023498535
            ]
        },
        {
            "bufferView": 77,
            "byteOffset": 0,
            "componentType": 5126,
            "count": 199512,
            "type": "VEC3",
            "max": [
                0.999997615814209,
                0.999997615814209,
                1.0
            ],
            "min": [
                -0.999997615814209,
                -0.999997615814209,
                -1.0
            ]
        },
        {
            "bufferView": 78,
            "byteOffset": 0,
            "componentType": 5126,
            "count": 199512,
            "type": "VEC2",
            "max": [
                -1.7976931348623157e308,
                -1.7976931348623157e308
            ],
            "min": [
                1.7976931348623157e308,
                1.7976931348623157e308
            ]
        },
        {
            "bufferView": 79,
            "byteOffset": 0,
            "componentType": 5125,
            "count": 199512,
            "type": "SCALAR",
            "max": [
                199511
            ],
            "min": [
                0
            ]
        },
        {
            "bufferView": 80,
            "byteOffset": 0,
            "componentType": 5126,
            "count": 269172,
            "type": "VEC3",
            "max": [
                23.715246200561525,
                -77.26500701904297,
                60.9727897644043
            ],
            "min": [
                -22.624500274658204,
                -120.427001953125,
                32.34590148925781
            ]
        },
        {
            "bufferView": 81,
            "byteOffset": 0,
            "componentType": 5126,
            "count": 269172,
            "type": "VEC3",
            "max": [
                0.999997615814209,
                0.999997615814209,
                1.0
            ],
            "min": [
                -0.999997615814209,
                -0.999997615814209,
                -1.0
            ]
        },
        {
            "bufferView": 82,
            "byteOffset": 0,
            "componentType": 5126,
            "count": 269172,
            "type": "VEC2",
            "max": [
                -1.7976931348623157e308,
                -1.7976931348623157e308
            ],
            "min": [
                1.7976931348623157e308,
                1.7976931348623157e308
            ]
        },
        {
            "bufferView": 83,
            "byteOffset": 0,
            "componentType": 5125,
            "count": 269172,
            "type": "SCALAR",
            "max": [
                269171
            ],
            "min": [
                0
            ]
        },
        {
            "bufferView": 84,
            "byteOffset": 0,
            "componentType": 5126,
            "count": 307248,
            "type": "VEC3",
            "max": [
                155.50857543945313,
                126.50051879882813,
                102.10260772705078
            ],
            "min": [
                -155.50900268554688,
                -118.56266784667969,
                36.00749969482422
            ]
        },
        {
            "bufferView": 85,
            "byteOffset": 0,
            "componentType": 5126,
            "count": 307248,
            "type": "VEC3",
            "max": [
                0.999997615814209,
                0.999997615814209,
                1.0
            ],
            "min": [
                -0.999997615814209,
                -0.999997615814209,
                -1.0
            ]
        },
        {
            "bufferView": 86,
            "byteOffset": 0,
            "componentType": 5126,
            "count": 307248,
            "type": "VEC2",
            "max": [
                -1.7976931348623157e308,
                -1.7976931348623157e308
            ],
            "min": [
                1.7976931348623157e308,
                1.7976931348623157e308
            ]
        },
        {
            "bufferView": 87,
            "byteOffset": 0,
            "componentType": 5125,
            "count": 307248,
            "type": "SCALAR",
            "max": [
                307247
            ],
            "min": [
                0
            ]
        },
        {
            "bufferView": 88,
            "byteOffset": 0,
            "componentType": 5126,
            "count": 60960,
            "type": "VEC3",
            "max": [
                8.101990699768067,
                -71.23797607421875,
                72.96195220947266
            ],
            "min": [
                -7.011099815368652,
                -104.7750015258789,
                39.102500915527347
            ]
        },
        {
            "bufferView": 89,
            "byteOffset": 0,
            "componentType": 5126,
            "count": 60960,
            "type": "VEC3",
            "max": [
                0.999997615814209,
                0.999997615814209,
                1.0
            ],
            "min": [
                -0.999997615814209,
                -0.999997615814209,
                -1.0
            ]
        },
        {
            "bufferView": 90,
            "byteOffset": 0,
            "componentType": 5126,
            "count": 60960,
            "type": "VEC2",
            "max": [
                -1.7976931348623157e308,
                -1.7976931348623157e308
            ],
            "min": [
                1.7976931348623157e308,
                1.7976931348623157e308
            ]
        },
        {
            "bufferView": 91,
            "byteOffset": 0,
            "componentType": 5125,
            "count": 60960,
            "type": "SCALAR",
            "max": [
                60959
            ],
            "min": [
                0
            ]
        },
        {
            "bufferView": 92,
            "byteOffset": 0,
            "componentType": 5126,
            "count": 51552,
            "type": "VEC3",
            "max": [
                31.084659576416017,
                75.9183578491211,
                85.44798278808594
            ],
            "min": [
                -30.142099380493165,
                -122.54000091552735,
                30.673099517822267
            ]
        },
        {
            "bufferView": 93,
            "byteOffset": 0,
            "componentType": 5126,
            "count": 51552,
            "type": "VEC3",
            "max": [
                0.999997615814209,
                0.999997615814209,
                1.0
            ],
            "min": [
                -0.999997615814209,
                -0.999997615814209,
                -1.0
            ]
        },
        {
            "bufferView": 94,
            "byteOffset": 0,
            "componentType": 5126,
            "count": 51552,
            "type": "VEC2",
            "max": [
                -1.7976931348623157e308,
                -1.7976931348623157e308
            ],
            "min": [
                1.7976931348623157e308,
                1.7976931348623157e308
            ]
        },
        {
            "bufferView": 95,
            "byteOffset": 0,
            "componentType": 5125,
            "count": 51552,
            "type": "SCALAR",
            "max": [
                51551
            ],
            "min": [
                0
            ]
        },
        {
            "bufferView": 96,
            "byteOffset": 0,
            "componentType": 5126,
            "count": 280188,
            "type": "VEC3",
            "max": [
                203.99070739746095,
                201.5964813232422,
                102.16617584228516
            ],
            "min": [
                -201.07400512695313,
                -201.2310028076172,
                63.2067985534668
            ]
        },
        {
            "bufferView": 97,
            "byteOffset": 0,
            "componentType": 5126,
            "count": 280188,
            "type": "VEC3",
            "max": [
                0.999997615814209,
                0.999997615814209,
                1.0
            ],
            "min": [
                -0.999997615814209,
                -0.999997615814209,
                -1.0
            ]
        },
        {
            "bufferView": 98,
            "byteOffset": 0,
            "componentType": 5126,
            "count": 280188,
            "type": "VEC2",
            "max": [
                -1.7976931348623157e308,
                -1.7976931348623157e308
            ],
            "min": [
                1.7976931348623157e308,
                1.7976931348623157e308
            ]
        },
        {
            "bufferView": 99,
            "byteOffset": 0,
            "componentType": 5125,
            "count": 280188,
            "type": "SCALAR",
            "max": [
                280187
            ],
            "min": [
                0
            ]
        }
    ],
    "buffers": [
        {
            "byteLength": 104184576,
            "uri": "result.bin"
        }
    ],
    "bufferViews": [
        {
            "buffer": 0,
            "byteOffset": 0,
            "byteLength": 56448,
            "target": 34962
        },
        {
            "buffer": 0,
            "byteOffset": 56448,
            "byteLength": 56448,
            "target": 34962
        },
        {
            "buffer": 0,
            "byteOffset": 112896,
            "byteLength": 37632,
            "target": 34962
        },
        {
            "buffer": 0,
            "byteOffset": 150528,
            "byteLength": 18816,
            "target": 34963
        },
        {
            "buffer": 0,
            "byteOffset": 169344,
            "byteLength": 887040,
            "target": 34962
        },
        {
            "buffer": 0,
            "byteOffset": 1056384,
            "byteLength": 887040,
            "target": 34962
        },
        {
            "buffer": 0,
            "byteOffset": 1943424,
            "byteLength": 591360,
            "target": 34962
        },
        {
            "buffer": 0,
            "byteOffset": 2534784,
            "byteLength": 295680,
            "target": 34963
        },
        {
            "buffer": 0,
            "byteOffset": 2830464,
            "byteLength": 1120752,
            "target": 34962
        },
        {
            "buffer": 0,
            "byteOffset": 3951216,
            "byteLength": 1120752,
            "target": 34962
        },
        {
            "buffer": 0,
            "byteOffset": 5071968,
            "byteLength": 747168,
            "target": 34962
        },
        {
            "buffer": 0,
            "byteOffset": 5819136,
            "byteLength": 373584,
            "target": 34963
        },
        {
            "buffer": 0,
            "byteOffset": 6192720,
            "byteLength": 258048,
            "target": 34962
        },
        {
            "buffer": 0,
            "byteOffset": 6450768,
            "byteLength": 258048,
            "target": 34962
        },
        {
            "buffer": 0,
            "byteOffset": 6708816,
            "byteLength": 172032,
            "target": 34962
        },
        {
            "buffer": 0,
            "byteOffset": 6880848,
            "byteLength": 86016,
            "target": 34963
        },
        {
            "buffer": 0,
            "byteOffset": 6966864,
            "byteLength": 290304,
            "target": 34962
        },
        {
            "buffer": 0,
            "byteOffset": 7257168,
            "byteLength": 290304,
            "target": 34962
        },
        {
            "buffer": 0,
            "byteOffset": 7547472,
            "byteLength": 193536,
            "target": 34962
        },
        {
            "buffer": 0,
            "byteOffset": 7741008,
            "byteLength": 96768,
            "target": 34963
        },
        {
            "buffer": 0,
            "byteOffset": 7837776,
            "byteLength": 2287296,
            "target": 34962
        },
        {
            "buffer": 0,
            "byteOffset": 10125072,
            "byteLength": 2287296,
            "target": 34962
        },
        {
            "buffer": 0,
            "byteOffset": 12412368,
            "byteLength": 1524864,
            "target": 34962
        },
        {
            "buffer": 0,
            "byteOffset": 13937232,
            "byteLength": 762432,
            "target": 34963
        },
        {
            "buffer": 0,
            "byteOffset": 14699664,
            "byteLength": 389664,
            "target": 34962
        },
        {
            "buffer": 0,
            "byteOffset": 15089328,
            "byteLength": 389664,
            "target": 34962
        },
        {
            "buffer": 0,
            "byteOffset": 15478992,
            "byteLength": 259776,
            "target": 34962
        },
        {
            "buffer": 0,
            "byteOffset": 15738768,
            "byteLength": 129888,
            "target": 34963
        },
        {
            "buffer": 0,
            "byteOffset": 15868656,
            "byteLength": 1677456,
            "target": 34962
        },
        {
            "buffer": 0,
            "byteOffset": 17546112,
            "byteLength": 1677456,
            "target": 34962
        },
        {
            "buffer": 0,
            "byteOffset": 19223568,
            "byteLength": 1118304,
            "target": 34962
        },
        {
            "buffer": 0,
            "byteOffset": 20341872,
            "byteLength": 559152,
            "target": 34963
        },
        {
            "buffer": 0,
            "byteOffset": 20901024,
            "byteLength": 1677456,
            "target": 34962
        },
        {
            "buffer": 0,
            "byteOffset": 22578480,
            "byteLength": 1677456,
            "target": 34962
        },
        {
            "buffer": 0,
            "byteOffset": 24255936,
            "byteLength": 1118304,
            "target": 34962
        },
        {
            "buffer": 0,
            "byteOffset": 25374240,
            "byteLength": 559152,
            "target": 34963
        },
        {
            "buffer": 0,
            "byteOffset": 25933392,
            "byteLength": 14400,
            "target": 34962
        },
        {
            "buffer": 0,
            "byteOffset": 25947792,
            "byteLength": 14400,
            "target": 34962
        },
        {
            "buffer": 0,
            "byteOffset": 25962192,
            "byteLength": 9600,
            "target": 34962
        },
        {
            "buffer": 0,
            "byteOffset": 25971792,
            "byteLength": 4800,
            "target": 34963
        },
        {
            "buffer": 0,
            "byteOffset": 25976592,
            "byteLength": 1677456,
            "target": 34962
        },
        {
            "buffer": 0,
            "byteOffset": 27654048,
            "byteLength": 1677456,
            "target": 34962
        },
        {
            "buffer": 0,
            "byteOffset": 29331504,
            "byteLength": 1118304,
            "target": 34962
        },
        {
            "buffer": 0,
            "byteOffset": 30449808,
            "byteLength": 559152,
            "target": 34963
        },
        {
            "buffer": 0,
            "byteOffset": 31008960,
            "byteLength": 3736008,
            "target": 34962
        },
        {
            "buffer": 0,
            "byteOffset": 34744968,
            "byteLength": 3736008,
            "target": 34962
        },
        {
            "buffer": 0,
            "byteOffset": 38480976,
            "byteLength": 2490672,
            "target": 34962
        },
        {
            "buffer": 0,
            "byteOffset": 40971648,
            "byteLength": 1245336,
            "target": 34963
        },
        {
            "buffer": 0,
            "byteOffset": 42216984,
            "byteLength": 13824,
            "target": 34962
        },
        {
            "buffer": 0,
            "byteOffset": 42230808,
            "byteLength": 13824,
            "target": 34962
        },
        {
            "buffer": 0,
            "byteOffset": 42244632,
            "byteLength": 9216,
            "target": 34962
        },
        {
            "buffer": 0,
            "byteOffset": 42253848,
            "byteLength": 4608,
            "target": 34963
        },
        {
            "buffer": 0,
            "byteOffset": 42258456,
            "byteLength": 3736008,
            "target": 34962
        },
        {
            "buffer": 0,
            "byteOffset": 45994464,
            "byteLength": 3736008,
            "target": 34962
        },
        {
            "buffer": 0,
            "byteOffset": 49730472,
            "byteLength": 2490672,
            "target": 34962
        },
        {
            "buffer": 0,
            "byteOffset": 52221144,
            "byteLength": 1245336,
            "target": 34963
        },
        {
            "buffer": 0,
            "byteOffset": 53466480,
            "byteLength": 405504,
            "target": 34962
        },
        {
            "buffer": 0,
            "byteOffset": 53871984,
            "byteLength": 405504,
            "target": 34962
        },
        {
            "buffer": 0,
            "byteOffset": 54277488,
            "byteLength": 270336,
            "target": 34962
        },
        {
            "buffer": 0,
            "byteOffset": 54547824,
            "byteLength": 135168,
            "target": 34963
        },
        {
            "buffer": 0,
            "byteOffset": 54682992,
            "byteLength": 1129032,
            "target": 34962
        },
        {
            "buffer": 0,
            "byteOffset": 55812024,
            "byteLength": 1129032,
            "target": 34962
        },
        {
            "buffer": 0,
            "byteOffset": 56941056,
            "byteLength": 752688,
            "target": 34962
        },
        {
            "buffer": 0,
            "byteOffset": 57693744,
            "byteLength": 376344,
            "target": 34963
        },
        {
            "buffer": 0,
            "byteOffset": 58070088,
            "byteLength": 1129032,
            "target": 34962
        },
        {
            "buffer": 0,
            "byteOffset": 59199120,
            "byteLength": 1129032,
            "target": 34962
        },
        {
            "buffer": 0,
            "byteOffset": 60328152,
            "byteLength": 752688,
            "target": 34962
        },
        {
            "buffer": 0,
            "byteOffset": 61080840,
            "byteLength": 376344,
            "target": 34963
        },
        {
            "buffer": 0,
            "byteOffset": 61457184,
            "byteLength": 186624,
            "target": 34962
        },
        {
            "buffer": 0,
            "byteOffset": 61643808,
            "byteLength": 186624,
            "target": 34962
        },
        {
            "buffer": 0,
            "byteOffset": 61830432,
            "byteLength": 124416,
            "target": 34962
        },
        {
            "buffer": 0,
            "byteOffset": 61954848,
            "byteLength": 62208,
            "target": 34963
        },
        {
            "buffer": 0,
            "byteOffset": 62017056,
            "byteLength": 32256,
            "target": 34962
        },
        {
            "buffer": 0,
            "byteOffset": 62049312,
            "byteLength": 32256,
            "target": 34962
        },
        {
            "buffer": 0,
            "byteOffset": 62081568,
            "byteLength": 21504,
            "target": 34962
        },
        {
            "buffer": 0,
            "byteOffset": 62103072,
            "byteLength": 10752,
            "target": 34963
        },
        {
            "buffer": 0,
            "byteOffset": 62113824,
            "byteLength": 2394144,
            "target": 34962
        },
        {
            "buffer": 0,
            "byteOffset": 64507968,
            "byteLength": 2394144,
            "target": 34962
        },
        {
            "buffer": 0,
            "byteOffset": 66902112,
            "byteLength": 1596096,
            "target": 34962
        },
        {
            "buffer": 0,
            "byteOffset": 68498208,
            "byteLength": 798048,
            "target": 34963
        },
        {
            "buffer": 0,
            "byteOffset": 69296256,
            "byteLength": 3230064,
            "target": 34962
        },
        {
            "buffer": 0,
            "byteOffset": 72526320,
            "byteLength": 3230064,
            "target": 34962
        },
        {
            "buffer": 0,
            "byteOffset": 75756384,
            "byteLength": 2153376,
            "target": 34962
        },
        {
            "buffer": 0,
            "byteOffset": 77909760,
            "byteLength": 1076688,
            "target": 34963
        },
        {
            "buffer": 0,
            "byteOffset": 78986448,
            "byteLength": 3686976,
            "target": 34962
        },
        {
            "buffer": 0,
            "byteOffset": 82673424,
            "byteLength": 3686976,
            "target": 34962
        },
        {
            "buffer": 0,
            "byteOffset": 86360400,
            "byteLength": 2457984,
            "target": 34962
        },
        {
            "buffer": 0,
            "byteOffset": 88818384,
            "byteLength": 1228992,
            "target": 34963
        },
        {
            "buffer": 0,
            "byteOffset": 90047376,
            "byteLength": 731520,
            "target": 34962
        },
        {
            "buffer": 0,
            "byteOffset": 90778896,
            "byteLength": 731520,
            "target": 34962
        },
        {
            "buffer": 0,
            "byteOffset": 91510416,
            "byteLength": 487680,
            "target": 34962
        },
        {
            "buffer": 0,
            "byteOffset": 91998096,
            "byteLength": 243840,
            "target": 34963
        },
        {
            "buffer": 0,
            "byteOffset": 92241936,
            "byteLength": 618624,
            "target": 34962
        },
        {
            "buffer": 0,
            "byteOffset": 92860560,
            "byteLength": 618624,
            "target": 34962
        },
        {
            "buffer": 0,
            "byteOffset": 93479184,
            "byteLength": 412416,
            "target": 34962
        },
        {
            "buffer": 0,
            "byteOffset": 93891600,
            "byteLength": 206208,
            "target": 34963
        },
        {
            "buffer": 0,
            "byteOffset": 94097808,
            "byteLength": 3362256,
            "target": 34962
        },
        {
            "buffer": 0,
            "byteOffset": 97460064,
            "byteLength": 3362256,
            "target": 34962
        },
        {
            "buffer": 0,
            "byteOffset": 100822320,
            "byteLength": 2241504,
            "target": 34962
        },
        {
            "buffer": 0,
            "byteOffset": 103063824,
            "byteLength": 1120752,
            "target": 34963
        }
    ],
    "materials": [
        {
            "name": "object_0",
            "pbrMetallicRoughness": {
                "metallicFactor": 0.5,
                "roughnessFactor": 0.5
            }
        },
        {
            "name": "object_1",
            "pbrMetallicRoughness": {
                "metallicFactor": 0.5,
                "roughnessFactor": 0.5
            }
        },
        {
            "name": "object_2",
            "pbrMetallicRoughness": {
                "metallicFactor": 0.5,
                "roughnessFactor": 0.5
            }
        },
        {
            "name": "object_3",
            "pbrMetallicRoughness": {
                "metallicFactor": 0.5,
                "roughnessFactor": 0.5
            }
        },
        {
            "name": "object_4",
            "pbrMetallicRoughness": {
                "metallicFactor": 0.5,
                "roughnessFactor": 0.5
            }
        },
        {
            "name": "object_5",
            "pbrMetallicRoughness": {
                "metallicFactor": 0.5,
                "roughnessFactor": 0.5
            }
        },
        {
            "name": "object_6",
            "pbrMetallicRoughness": {
                "metallicFactor": 0.5,
                "roughnessFactor": 0.5
            }
        },
        {
            "name": "object_7",
            "pbrMetallicRoughness": {
                "metallicFactor": 0.5,
                "roughnessFactor": 0.5
            }
        },
        {
            "name": "object_8",
            "pbrMetallicRoughness": {
                "metallicFactor": 0.5,
                "roughnessFactor": 0.5
            }
        },
        {
            "name": "object_9",
            "pbrMetallicRoughness": {
                "metallicFactor": 0.5,
                "roughnessFactor": 0.5
            }
        },
        {
            "name": "object_10",
            "pbrMetallicRoughness": {
                "metallicFactor": 0.5,
                "roughnessFactor": 0.5
            }
        },
        {
            "name": "object_11",
            "pbrMetallicRoughness": {
                "metallicFactor": 0.5,
                "roughnessFactor": 0.5
            }
        },
        {
            "name": "object_12",
            "pbrMetallicRoughness": {
                "metallicFactor": 0.5,
                "roughnessFactor": 0.5
            }
        },
        {
            "name": "object_13",
            "pbrMetallicRoughness": {
                "metallicFactor": 0.5,
                "roughnessFactor": 0.5
            }
        },
        {
            "name": "object_14",
            "pbrMetallicRoughness": {
                "metallicFactor": 0.5,
                "roughnessFactor": 0.5
            }
        },
        {
            "name": "object_15",
            "pbrMetallicRoughness": {
                "metallicFactor": 0.5,
                "roughnessFactor": 0.5
            }
        },
        {
            "name": "object_16",
            "pbrMetallicRoughness": {
                "metallicFactor": 0.5,
                "roughnessFactor": 0.5
            }
        },
        {
            "name": "object_17",
            "pbrMetallicRoughness": {
                "metallicFactor": 0.5,
                "roughnessFactor": 0.5
            }
        },
        {
            "name": "object_18",
            "pbrMetallicRoughness": {
                "metallicFactor": 0.5,
                "roughnessFactor": 0.5
            }
        },
        {
            "name": "object_19",
            "pbrMetallicRoughness": {
                "metallicFactor": 0.5,
                "roughnessFactor": 0.5
            }
        },
        {
            "name": "object_20",
            "pbrMetallicRoughness": {
                "metallicFactor": 0.5,
                "roughnessFactor": 0.5
            }
        },
        {
            "name": "object_21",
            "pbrMetallicRoughness": {
                "metallicFactor": 0.5,
                "roughnessFactor": 0.5
            }
        },
        {
            "name": "object_22",
            "pbrMetallicRoughness": {
                "metallicFactor": 0.5,
                "roughnessFactor": 0.5
            }
        },
        {
            "name": "object_23",
            "pbrMetallicRoughness": {
                "metallicFactor": 0.5,
                "roughnessFactor": 0.5
            }
        },
        {
            "name": "object_24",
            "pbrMetallicRoughness": {
                "metallicFactor": 0.5,
                "roughnessFactor": 0.5
            }
        },
        {
            "name": "material"
        }
    ],
    "meshes": [
        {
            "name": "meshes[0]",
            "primitives": [
                {
                    "mode": 4,
                    "material": 0,
                    "indices": 3,
                    "attributes": {
                        "POSITION": 0,
                        "NORMAL": 1,
                        "TEXCOORD_0": 2
                    }
                }
            ]
        },
        {
            "name": "meshes[1]",
            "primitives": [
                {
                    "mode": 4,
                    "material": 1,
                    "indices": 7,
                    "attributes": {
                        "POSITION": 4,
                        "NORMAL": 5,
                        "TEXCOORD_0": 6
                    }
                }
            ]
        },
        {
            "name": "meshes[2]",
            "primitives": [
                {
                    "mode": 4,
                    "material": 2,
                    "indices": 11,
                    "attributes": {
                        "POSITION": 8,
                        "NORMAL": 9,
                        "TEXCOORD_0": 10
                    }
                }
            ]
        },
        {
            "name": "meshes[3]",
            "primitives": [
                {
                    "mode": 4,
                    "material": 3,
                    "indices": 15,
                    "attributes": {
                        "POSITION": 12,
                        "NORMAL": 13,
                        "TEXCOORD_0": 14
                    }
                }
            ]
        },
        {
            "name": "meshes[4]",
            "primitives": [
                {
                    "mode": 4,
                    "material": 4,
                    "indices": 19,
                    "attributes": {
                        "POSITION": 16,
                        "NORMAL": 17,
                        "TEXCOORD_0": 18
                    }
                }
            ]
        },
        {
            "name": "meshes[5]",
            "primitives": [
                {
                    "mode": 4,
                    "material": 5,
                    "indices": 23,
                    "attributes": {
                        "POSITION": 20,
                        "NORMAL": 21,
                        "TEXCOORD_0": 22
                    }
                }
            ]
        },
        {
            "name": "meshes[6]",
            "primitives": [
                {
                    "mode": 4,
                    "material": 6,
                    "indices": 27,
                    "attributes": {
                        "POSITION": 24,
                        "NORMAL": 25,
                        "TEXCOORD_0": 26
                    }
                }
            ]
        },
        {
            "name": "meshes[7]",
            "primitives": [
                {
                    "mode": 4,
                    "material": 7,
                    "indices": 31,
                    "attributes": {
                        "POSITION": 28,
                        "NORMAL": 29,
                        "TEXCOORD_0": 30
                    }
                }
            ]
        },
        {
            "name": "meshes[8]",
            "primitives": [
                {
                    "mode": 4,
                    "material": 8,
                    "indices": 35,
                    "attributes": {
                        "POSITION": 32,
                        "NORMAL": 33,
                        "TEXCOORD_0": 34
                    }
                }
            ]
        },
        {
            "name": "meshes[9]",
            "primitives": [
                {
                    "mode": 4,
                    "material": 9,
                    "indices": 39,
                    "attributes": {
                        "POSITION": 36,
                        "NORMAL": 37,
                        "TEXCOORD_0": 38
                    }
                }
            ]
        },
        {
            "name": "meshes[10]",
            "primitives": [
                {
                    "mode": 4,
                    "material": 10,
                    "indices": 43,
                    "attributes": {
                        "POSITION": 40,
                        "NORMAL": 41,
                        "TEXCOORD_0": 42
                    }
                }
            ]
        },
        {
            "name": "meshes[11]",
            "primitives": [
                {
                    "mode": 4,
                    "material": 11,
                    "indices": 47,
                    "attributes": {
                        "POSITION": 44,
                        "NORMAL": 45,
                        "TEXCOORD_0": 46
                    }
                }
            ]
        },
        {
            "name": "meshes[12]",
            "primitives": [
                {
                    "mode": 4,
                    "material": 12,
                    "indices": 51,
                    "attributes": {
                        "POSITION": 48,
                        "NORMAL": 49,
                        "TEXCOORD_0": 50
                    }
                }
            ]
        },
        {
            "name": "meshes[13]",
            "primitives": [
                {
                    "mode": 4,
                    "material": 13,
                    "indices": 55,
                    "attributes": {
                        "POSITION": 52,
                        "NORMAL": 53,
                        "TEXCOORD_0": 54
                    }
                }
            ]
        },
        {
            "name": "meshes[14]",
            "primitives": [
                {
                    "mode": 4,
                    "material": 14,
                    "indices": 59,
                    "attributes": {
                        "POSITION": 56,
                        "NORMAL": 57,
                        "TEXCOORD_0": 58
                    }
                }
            ]
        },
        {
            "name": "meshes[15]",
            "primitives": [
                {
                    "mode": 4,
                    "material": 15,
                    "indices": 63,
                    "attributes": {
                        "POSITION": 60,
                        "NORMAL": 61,
                        "TEXCOORD_0": 62
                    }
                }
            ]
        },
        {
            "name": "meshes[16]",
            "primitives": [
                {
                    "mode": 4,
                    "material": 16,
                    "indices": 67,
                    "attributes": {
                        "POSITION": 64,
                        "NORMAL": 65,
                        "TEXCOORD_0": 66
                    }
                }
            ]
        },
        {
            "name": "meshes[17]",
            "primitives": [
                {
                    "mode": 4,
                    "material": 17,
                    "indices": 71,
                    "attributes": {
                        "POSITION": 68,
                        "NORMAL": 69,
                        "TEXCOORD_0": 70
                    }
                }
            ]
        },
        {
            "name": "meshes[18]",
            "primitives": [
                {
                    "mode": 4,
                    "material": 18,
                    "indices": 75,
                    "attributes": {
                        "POSITION": 72,
                        "NORMAL": 73,
                        "TEXCOORD_0": 74
                    }
                }
            ]
        },
        {
            "name": "meshes[19]",
            "primitives": [
                {
                    "mode": 4,
                    "material": 19,
                    "indices": 79,
                    "attributes": {
                        "POSITION": 76,
                        "NORMAL": 77,
                        "TEXCOORD_0": 78
                    }
                }
            ]
        },
        {
            "name": "meshes[20]",
            "primitives": [
                {
                    "mode": 4,
                    "material": 20,
                    "indices": 83,
                    "attributes": {
                        "POSITION": 80,
                        "NORMAL": 81,
                        "TEXCOORD_0": 82
                    }
                }
            ]
        },
        {
            "name": "meshes[21]",
            "primitives": [
                {
                    "mode": 4,
                    "material": 21,
                    "indices": 87,
                    "attributes": {
                        "POSITION": 84,
                        "NORMAL": 85,
                        "TEXCOORD_0": 86
                    }
                }
            ]
        },
        {
            "name": "meshes[22]",
            "primitives": [
                {
                    "mode": 4,
                    "material": 22,
                    "indices": 91,
                    "attributes": {
                        "POSITION": 88,
                        "NORMAL": 89,
                        "TEXCOORD_0": 90
                    }
                }
            ]
        },
        {
            "name": "meshes[23]",
            "primitives": [
                {
                    "mode": 4,
                    "material": 23,
                    "indices": 95,
                    "attributes": {
                        "POSITION": 92,
                        "NORMAL": 93,
                        "TEXCOORD_0": 94
                    }
                }
            ]
        },
        {
            "name": "meshes[24]",
            "primitives": [
                {
                    "mode": 4,
                    "material": 24,
                    "indices": 99,
                    "attributes": {
                        "POSITION": 96,
                        "NORMAL": 97,
                        "TEXCOORD_0": 98
                    }
                }
            ]
        }
    ],
    "nodes": [
        {
            "name": "nodes[25]",
            "children": [
                1,
                2,
                3,
                4,
                5,
                6,
                7,
                8,
                9,
                10,
                11,
                12,
                13,
                14,
                15,
                16,
                17,
                18,
                19,
                20,
                21,
                22,
                23,
                24,
                25
            ]
        },
        {
            "name": "object_0",
            "mesh": 0
        },
        {
            "name": "object_1",
            "mesh": 1
        },
        {
            "name": "object_2",
            "mesh": 2
        },
        {
            "name": "object_3",
            "mesh": 3
        },
        {
            "name": "object_4",
            "mesh": 4
        },
        {
            "name": "object_5",
            "mesh": 5
        },
        {
            "name": "object_6",
            "mesh": 6
        },
        {
            "name": "object_7",
            "mesh": 7
        },
        {
            "name": "object_8",
            "mesh": 8
        },
        {
            "name": "object_9",
            "mesh": 9
        },
        {
            "name": "object_10",
            "mesh": 10
        },
        {
            "name": "object_11",
            "mesh": 11
        },
        {
            "name": "object_12",
            "mesh": 12
        },
        {
            "name": "object_13",
            "mesh": 13
        },
        {
            "name": "object_14",
            "mesh": 14
        },
        {
            "name": "object_15",
            "mesh": 15
        },
        {
            "name": "object_16",
            "mesh": 16
        },
        {
            "name": "object_17",
            "mesh": 17
        },
        {
            "name": "object_18",
            "mesh": 18
        },
        {
            "name": "object_19",
            "mesh": 19
        },
        {
            "name": "object_20",
            "mesh": 20
        },
        {
            "name": "object_21",
            "mesh": 21
        },
        {
            "name": "object_22",
            "mesh": 22
        },
        {
            "name": "object_23",
            "mesh": 23
        },
        {
            "name": "object_24",
            "mesh": 24
        }
    ],
    "scenes": [
        {
            "nodes": [
                0
            ]
        }
    ],
    "scene": 0
}